<svg id="visual" viewBox="0 0 900 600" width="900" height="600" xmlns="http://www.w3.org/2000/svg" xmlns:xlink="http://www.w3.org/1999/xlink" version="1.1"><path d="M0 235L30 218C60 201 120 167 180 131C240 95 300 57 360 64C420 71 480 123 540 139C600 155 660 135 720 110C780 85 840 55 870 40L900 25L900 0L870 0C840 0 780 0 720 0C660 0 600 0 540 0C480 0 420 0 360 0C300 0 240 0 180 0C120 0 60 0 30 0L0 0Z" fill="#000000"></path><path d="M0 259L30 249C60 239 120 219 180 180C240 141 300 83 360 85C420 87 480 149 540 165C600 181 660 151 720 126C780 101 840 81 870 71L900 61L900 23L870 38C840 53 780 83 720 108C660 133 600 153 540 137C480 121 420 69 360 62C300 55 240 93 180 129C120 165 60 199 30 216L0 233Z" fill="#032820"></path><path d="M0 307L30 297C60 287 120 267 180 225C240 183 300 119 360 115C420 111 480 167 540 182C600 197 660 171 720 150C780 129 840 113 870 105L900 97L900 59L870 69C840 79 780 99 720 124C660 149 600 179 540 163C480 147 420 85 360 83C300 81 240 139 180 178C120 217 60 237 30 247L0 257Z" fill="#23463d"></path><path d="M0 337L30 334C60 331 120 325 180 283C240 241 300 163 360 152C420 141 480 197 540 208C600 219 660 185 720 172C780 159 840 167 870 171L900 175L900 95L870 103C840 111 780 127 720 148C660 169 600 195 540 180C480 165 420 109 360 113C300 117 240 181 180 223C120 265 60 285 30 295L0 305Z" fill="#42675c"></path><path d="M0 445L30 430C60 415 120 385 180 362C240 339 300 323 360 320C420 317 480 327 540 326C600 325 660 313 720 317C780 321 840 341 870 351L900 361L900 173L870 169C840 165 780 157 720 170C660 183 600 217 540 206C480 195 420 139 360 150C300 161 240 239 180 281C120 323 60 329 30 332L0 335Z" fill="#496e63"></path><path d="M0 463L30 460C60 457 120 451 180 446C240 441 300 437 360 435C420 433 480 433 540 424C600 415 660 397 720 395C780 393 840 407 870 414L900 421L900 359L870 349C840 339 780 319 720 315C660 311 600 323 540 324C480 325 420 315 360 318C300 321 240 337 180 360C120 383 60 413 30 428L0 443Z" fill="#42675c"></path><path d="M0 523L30 522C60 521 120 519 180 511C240 503 300 489 360 490C420 491 480 507 540 508C600 509 660 495 720 482C780 469 840 457 870 451L900 445L900 419L870 412C840 405 780 391 720 393C660 395 600 413 540 422C480 431 420 431 360 433C300 435 240 439 180 444C120 449 60 455 30 458L0 461Z" fill="#23463d"></path><path d="M0 577L30 570C60 563 120 549 180 534C240 519 300 503 360 509C420 515 480 543 540 552C600 561 660 551 720 536C780 521 840 501 870 491L900 481L900 443L870 449C840 455 780 467 720 480C660 493 600 507 540 506C480 505 420 489 360 488C300 487 240 501 180 509C120 517 60 519 30 520L0 521Z" fill="#032820"></path><path d="M0 601L30 601C60 601 120 601 180 601C240 601 300 601 360 601C420 601 480 601 540 601C600 601 660 601 720 601C780 601 840 601 870 601L900 601L900 479L870 489C840 499 780 519 720 534C660 549 600 559 540 550C480 541 420 513 360 507C300 501 240 517 180 532C120 547 60 561 30 568L0 575Z" fill="#000000"></path></svg>